<?xml version="1.0" encoding="UTF-8" standalone="no"?>
<!-- Generator: Adobe Illustrator 21.0.0, SVG Export Plug-In . SVG Version: 6.00 Build 0)  -->

<svg
   xmlns:dc="http://purl.org/dc/elements/1.1/"
   xmlns:cc="http://creativecommons.org/ns#"
   xmlns:rdf="http://www.w3.org/1999/02/22-rdf-syntax-ns#"
   xmlns:svg="http://www.w3.org/2000/svg"
   xmlns="http://www.w3.org/2000/svg"
   xmlns:sodipodi="http://sodipodi.sourceforge.net/DTD/sodipodi-0.dtd"
   xmlns:inkscape="http://www.inkscape.org/namespaces/inkscape"
   version="1.1"
   id="Capa_1"
   x="0px"
   y="0px"
   viewBox="0 0 55 55"
   xml:space="preserve"
   width="55"
   height="55"
   sodipodi:docname="icon_2.svg"
   inkscape:version="0.92.4 (33fec40, 2019-01-16)"><metadata
   id="metadata33"><rdf:RDF><cc:Work
       rdf:about=""><dc:format>image/svg+xml</dc:format><dc:type
         rdf:resource="http://purl.org/dc/dcmitype/StillImage" /><dc:title></dc:title></cc:Work></rdf:RDF></metadata><defs
   id="defs31" /><sodipodi:namedview
   pagecolor="#ffffff"
   bordercolor="#666666"
   borderopacity="1"
   objecttolerance="10"
   gridtolerance="10"
   guidetolerance="10"
   inkscape:pageopacity="0"
   inkscape:pageshadow="2"
   inkscape:window-width="1920"
   inkscape:window-height="1044"
   id="namedview29"
   showgrid="false"
   inkscape:zoom="0.4609375"
   inkscape:cx="-144.27119"
   inkscape:cy="256"
   inkscape:window-x="0"
   inkscape:window-y="0"
   inkscape:window-maximized="1"
   inkscape:current-layer="Capa_1" />
<g
   id="g26"
   transform="matrix(0.10366035,0,0,0.09765625,0.96286208,2.5)">
	<path
   style="fill:#979fef"
   d="m 495.105,307.299 c 0,0 -13.198,23.401 -15,26.1 -3.898,7.202 -13.198,9.6 -20.4,5.7 -2.999,-1.8 -23.099,-13.2 -25.499,-15 -8.101,6.901 -17.401,12.601 -28.2,16.501 V 361 c 0,8.399 -6.599,15 -15,15 h -30 c -8.401,0 -15,-6.601 -15,-15 v -20.4 c -10.8,-3.9 -20.099,-9.6 -28.2,-16.501 l -46.8,25.201 -43.5,6.899 13.2,-58.499 46.8,-25.201 c -0.899,-5.4 -1.5,-10.8 -1.5,-16.5 0,-5.7 0.601,-11.1 1.8,-16.5 l -46.8,-25.201 -15.3,-55.201 45.601,3.602 46.5,25.199 c 8.401,-7.2 17.701,-12.599 28.2,-16.5 V 151 c 0,-8.401 6.599,-15 15,-15 h 30 c 8.401,0 15,6.599 15,15 v 20.4 c 10.8,3.9 19.799,9.6 27.9,16.5 0,0 0,0 0.3,0 2.999,-1.8 23.101,-13.2 25.499,-15 7.202,-3.9 16.201,-1.5 20.4,5.4 0,0 13.2,23.401 15,26.1 4.2,7.2 1.802,16.5 -5.4,20.7 -3.3,1.5 -23.099,12.601 -25.499,14.401 1.199,5.4 1.8,10.8 1.8,16.5 0,5.7 -0.601,11.1 -1.5,16.5 3.3,1.5 22.8,12.599 25.199,14.399 7.201,4.199 9.599,13.199 5.399,20.399 z"
   id="path2"
   inkscape:connector-curvature="0" />
	<path
   style="fill:#737ee6"
   d="m 495.105,307.299 c 0,0 -13.198,23.401 -15,26.1 -3.898,7.202 -13.198,9.6 -20.4,5.7 -2.999,-1.8 -23.099,-13.2 -25.499,-15 -8.101,6.901 -17.401,12.601 -28.2,16.501 V 361 c 0,8.399 -6.599,15 -15,15 h -15 V 136 h 15 c 8.401,0 15,6.599 15,15 v 20.4 c 10.8,3.9 19.799,9.6 27.9,16.5 0,0 0,0 0.3,0 2.999,-1.8 23.101,-13.2 25.499,-15 7.202,-3.9 16.201,-1.5 20.4,5.4 0,0 13.2,23.401 15,26.1 4.2,7.2 1.802,16.5 -5.4,20.7 -3.3,1.5 -23.099,12.601 -25.499,14.401 1.199,5.4 1.8,10.8 1.8,16.5 0,5.7 -0.601,11.1 -1.5,16.5 3.3,1.5 22.8,12.599 25.199,14.399 7.202,4.199 9.6,13.199 5.4,20.399 z"
   id="path4"
   inkscape:connector-curvature="0" />
	<path
   style="fill:#ff641a"
   d="m 255.105,442.299 c 0,0 -13.198,23.401 -15,26.1 -3.898,7.202 -13.198,9.6 -20.4,5.7 -2.999,-1.8 -23.099,-13.2 -25.499,-15 -8.101,6.901 -17.401,12.301 -28.2,16.501 V 497 c 0,8.399 -6.599,15 -15,15 h -30 c -8.401,0 -15,-6.601 -15,-15 v -21.4 c -10.8,-4.2 -20.099,-9.6 -28.2,-16.501 -2.999,1.8 -23.101,13.2 -25.499,15 -7.202,3.9 -16.501,1.501 -20.4,-5.7 -1.802,-2.999 -13.2,-23.399 -15,-25.8 -4.2,-7.2 -1.802,-16.199 5.099,-20.4 0.3,0 22.8,-12.9 25.499,-14.7 -0.899,-5.7 -1.5,-10.8 -1.5,-16.5 0,-5.7 0.601,-11.1 1.8,-16.5 -3.3,-1.501 -23.101,-12.601 -25.499,-14.401 -7.202,-4.2 -9.6,-13.5 -5.4,-20.7 1.8,-2.999 13.198,-23.399 15,-25.8 3.898,-7.2 12.9,-9.6 20.099,-5.7 0,0 23.099,13.2 25.8,15 8.401,-7.2 17.701,-12.599 28.2,-16.5 0,0 0,-47.401 0,-50.4 l 30,-30 30,30 c 0,0 0,47.399 0,50.4 10.499,3.9 19.799,9.3 28.2,16.5 l 46.5,-25.199 30.3,51.599 -46.8,25.201 c 1.199,5.4 1.8,10.8 1.8,16.5 0,5.7 -0.601,11.1 -1.5,16.5 3.3,1.5 22.8,12.599 25.199,14.399 7.203,4.201 9.601,13.201 5.401,20.401 z"
   id="path6"
   inkscape:connector-curvature="0" />
	<path
   style="fill:#f03800"
   d="m 255.105,442.299 c 0,0 -13.198,23.401 -15,26.1 -3.898,7.202 -13.198,9.6 -20.4,5.7 -2.999,-1.8 -23.099,-13.2 -25.499,-15 -8.101,6.901 -17.401,12.301 -28.2,16.501 V 497 c 0,8.399 -6.599,15 -15,15 h -15 V 226 l 30,30 c 0,0 0,47.399 0,50.4 10.499,3.9 19.799,9.3 28.2,16.5 l 46.5,-25.199 30.3,51.599 -46.8,25.201 c 1.199,5.4 1.8,10.8 1.8,16.5 0,5.7 -0.601,11.1 -1.5,16.5 3.3,1.5 22.8,12.599 25.199,14.399 7.202,4.199 9.6,13.199 5.4,20.399 z"
   id="path8"
   inkscape:connector-curvature="0" />
	<path
   style="fill:#ffda2d"
   d="m 271.306,162.7 -30.3,51.599 -46.8,-25.201 c -4.2,3.602 -8.699,6.601 -13.2,9.6 -4.799,2.701 -9.901,5.101 -15,6.901 0,0 0,47.399 0,50.4 h -60 c 0,0 0,-47.401 0,-50.4 -10.8,-3.9 -20.099,-9.6 -28.2,-16.501 -2.999,1.8 -23.101,13.2 -25.499,15 -7.202,3.9 -16.501,1.501 -20.4,-5.7 -1.802,-2.999 -13.2,-23.399 -15,-25.8 -4.2,-7.2 -1.802,-16.199 5.099,-20.4 0.3,0 22.8,-12.9 25.499,-14.7 -0.899,-5.4 -1.5,-10.8 -1.5,-16.5 0,-5.7 0.601,-11.1 1.8,-16.5 -3.3,-1.501 -23.101,-12.601 -25.499,-14.401 -7.202,-4.2 -9.6,-13.5 -5.4,-20.7 1.8,-2.999 13.198,-23.399 15,-25.8 3.898,-7.2 12.9,-9.6 20.099,-5.7 0,0 23.099,13.2 25.8,15 8.401,-7.2 17.701,-12.599 28.2,-16.5 V 15 c 0,-8.401 6.599,-15 15,-15 h 30 c 8.401,0 15,6.599 15,15 v 21.4 c 10.499,3.9 19.501,9.3 27.9,16.5 0,0 0,0 0.3,0 2.999,-1.8 23.101,-13.2 25.499,-15 7.202,-3.9 16.201,-1.5 20.4,5.4 0,0 13.2,23.401 15,26.1 4.2,7.2 1.802,16.5 -5.4,20.7 -3.3,1.5 -23.099,12.601 -25.499,14.401 1.199,5.4 1.8,10.8 1.8,16.5 0,5.7 -0.601,11.1 -1.5,16.5 z"
   id="path10"
   inkscape:connector-curvature="0" />
	<path
   style="fill:#fdbf00"
   d="m 271.306,162.7 -30.3,51.599 -46.8,-25.201 c -4.2,3.602 -8.699,6.601 -13.2,9.6 -4.799,2.701 -9.901,5.101 -15,6.901 0,0 0,47.399 0,50.4 h -30 V 0 h 15 c 8.401,0 15,6.599 15,15 v 21.4 c 10.499,3.9 19.501,9.3 27.9,16.5 0,0 0,0 0.3,0 2.999,-1.8 23.101,-13.2 25.499,-15 7.202,-3.9 16.201,-1.5 20.4,5.4 0,0 13.2,23.401 15,26.1 4.2,7.2 1.802,16.5 -5.4,20.7 -3.3,1.5 -23.099,12.601 -25.499,14.401 1.199,5.4 1.8,10.8 1.8,16.5 0,5.7 -0.601,11.1 -1.5,16.5 z"
   id="path12"
   inkscape:connector-curvature="0" />
	<path
   style="fill:#47568c"
   d="m 431.505,215.499 c -5.7,-5.999 -15.298,-5.999 -20.999,0 l -34.501,34.2 -15,15 -19.501,-19.2 c -5.7,-5.999 -15.298,-5.999 -20.999,0 -6,5.7 -6,15.3 0,21 l 30,30 c 2.699,3.001 6.599,4.501 10.499,4.501 3.9,0 7.8,-1.5 10.499,-4.501 l 4.501,-4.499 55.499,-55.501 c 6.002,-5.7 6.002,-15.3 0.002,-21 z"
   id="path14"
   inkscape:connector-curvature="0" />
	<path
   style="fill:#47568c"
   d="m 191.505,350.499 c -5.7,-5.999 -15.298,-5.999 -20.999,0 l -34.501,34.2 -15,15 -19.501,-19.2 c -5.7,-5.999 -15.298,-5.999 -20.999,0 -6,5.7 -6,15.3 0,21 l 30,30 c 2.699,3.001 6.599,4.501 10.499,4.501 3.9,0 7.8,-1.5 10.499,-4.501 l 4.501,-4.499 55.499,-55.501 c 6.002,-5.7 6.002,-15.3 0.002,-21 z"
   id="path16"
   inkscape:connector-curvature="0" />
	<path
   style="fill:#47568c"
   d="m 191.505,80.499 c -5.7,-5.999 -15.298,-5.999 -20.999,0 l -34.501,34.2 -15,15 -19.501,-19.2 c -5.7,-5.999 -15.298,-5.999 -20.999,0 -6,5.7 -6,15.3 0,21 l 30,30 c 2.699,3.001 6.599,4.501 10.499,4.501 3.9,0 7.8,-1.5 10.499,-4.501 l 4.501,-4.499 55.499,-55.501 c 6.002,-5.7 6.002,-15.3 0.002,-21 z"
   id="path18"
   inkscape:connector-curvature="0" />
	<path
   style="fill:#2c3b73"
   d="M 191.505,101.499 136.006,157 v -42.301 l 34.501,-34.2 c 5.7,-5.999 15.298,-5.999 20.999,0 5.999,5.7 5.999,15.3 -0.001,21 z"
   id="path20"
   inkscape:connector-curvature="0" />
	<path
   style="fill:#2c3b73"
   d="M 191.505,371.499 136.006,427 v -42.301 l 34.501,-34.2 c 5.7,-5.999 15.298,-5.999 20.999,0 5.999,5.7 5.999,15.3 -0.001,21 z"
   id="path22"
   inkscape:connector-curvature="0" />
	<path
   style="fill:#2c3b73"
   d="M 431.505,236.499 376.006,292 v -42.301 l 34.501,-34.2 c 5.7,-5.999 15.298,-5.999 20.999,0 5.999,5.7 5.999,15.3 -10e-4,21 z"
   id="path24"
   inkscape:connector-curvature="0" />
</g>















</svg>