<?xml version="1.0" encoding="UTF-8" standalone="no"?>
<svg
   xmlns:dc="http://purl.org/dc/elements/1.1/"
   xmlns:cc="http://creativecommons.org/ns#"
   xmlns:rdf="http://www.w3.org/1999/02/22-rdf-syntax-ns#"
   xmlns:svg="http://www.w3.org/2000/svg"
   xmlns="http://www.w3.org/2000/svg"
   xmlns:sodipodi="http://sodipodi.sourceforge.net/DTD/sodipodi-0.dtd"
   xmlns:inkscape="http://www.inkscape.org/namespaces/inkscape"
   height="55"
   viewBox="0 0 41.250001 41.330696"
   width="55"
   version="1.1"
   id="svg28"
   sodipodi:docname="icon_1.svg"
   inkscape:version="0.92.4 (33fec40, 2019-01-16)">
  <metadata
     id="metadata34">
    <rdf:RDF>
      <cc:Work
         rdf:about="">
        <dc:format>image/svg+xml</dc:format>
        <dc:type
           rdf:resource="http://purl.org/dc/dcmitype/StillImage" />
        <dc:title></dc:title>
      </cc:Work>
    </rdf:RDF>
  </metadata>
  <defs
     id="defs32" />
  <sodipodi:namedview
     pagecolor="#ffffff"
     bordercolor="#666666"
     borderopacity="1"
     objecttolerance="10"
     gridtolerance="10"
     guidetolerance="10"
     inkscape:pageopacity="0"
     inkscape:pageshadow="2"
     inkscape:window-width="1920"
     inkscape:window-height="1044"
     id="namedview30"
     showgrid="false"
     units="px"
     inkscape:zoom="0.34637965"
     inkscape:cx="870.4322"
     inkscape:cy="340.66667"
     inkscape:window-x="0"
     inkscape:window-y="0"
     inkscape:window-maximized="1"
     inkscape:current-layer="svg28" />
  <g
     id="g49"
     transform="translate(-235.81167,235.33439)">
    <path
       style="fill:#0396fd;stroke-width:0.07339453"
       inkscape:connector-curvature="0"
       id="path2"
       d="m 269.10517,-211.60605 c 0,8.68384 -7.04159,15.7234 -15.72759,15.7234 -8.686,0 -15.72759,-7.03956 -15.72759,-15.7234 0,-8.68414 7.04159,-15.72369 15.72759,-15.72369 8.686,0 15.72759,7.03955 15.72759,15.72369 z m 0,0" />
    <path
       style="fill:#0077f0;stroke-width:0.07339453"
       inkscape:connector-curvature="0"
       id="path4"
       d="m 269.10517,-211.60577 c 0,8.68385 -7.0413,15.72341 -15.72731,15.72341 -2.54246,0 -4.94442,-0.60285 -7.0694,-1.6744 1.52714,0.4945 3.15665,0.76166 4.84837,0.76166 8.686,0 15.7273,-7.03926 15.7273,-15.7234 0,-6.14373 -3.52481,-11.46504 -8.66363,-14.0513 6.31644,2.04074 10.88467,7.96891 10.88467,14.96403 z m 0,0" />
    <path
       style="fill:#e7e7e7;stroke-width:0.07339453"
       inkscape:connector-curvature="0"
       id="path6"
       d="m 264.74367,-211.60605 c 0,6.2756 -5.08894,11.36327 -11.36609,11.36327 -6.27745,0 -11.36609,-5.08767 -11.36609,-11.36327 0,-6.27589 5.08864,-11.36328 11.36609,-11.36328 6.27715,0 11.36609,5.08739 11.36609,11.36328 z m 0,0" />
    <path
       style="fill:#cecece;stroke-width:0.07339453"
       inkscape:connector-curvature="0"
       id="path8"
       d="m 264.74367,-211.60577 c 0,6.27532 -5.08894,11.36299 -11.3658,11.36299 -2.2477,0 -4.34315,-0.65215 -6.10656,-1.77759 1.23496,0.45981 2.57142,0.71064 3.96609,0.71064 6.27773,0 11.36638,-5.08739 11.36638,-11.3627 0,-4.02904 -2.09745,-7.56874 -5.25983,-9.58598 4.32136,1.60875 7.39972,5.77165 7.39972,10.65264 z m 0,0" />
    <path
       style="fill:#64dcfc;stroke-width:0.07339453"
       inkscape:connector-curvature="0"
       id="path10"
       d="m 260.36038,-211.60605 c 0,3.85531 -3.12653,6.98079 -6.9828,6.98079 -3.85656,0 -6.98281,-3.12548 -6.98281,-6.98079 0,-3.8556 3.12625,-6.98108 6.98281,-6.98108 3.85627,0 6.9828,3.12548 6.9828,6.98108 z m 0,0" />
    <path
       style="fill:#00d1fc;stroke-width:0.07339453"
       inkscape:connector-curvature="0"
       id="path12"
       d="m 260.3601,-211.60577 c 0,3.85532 -3.12568,6.98051 -6.98223,6.98051 -1.93058,0 -3.67793,-0.78259 -4.94185,-2.04849 0.6787,0.22016 1.40356,0.3397 2.15566,0.3397 3.85656,0 6.98309,-3.12605 6.98309,-6.98137 0,-1.92608 -0.77962,-3.66984 -2.04182,-4.93259 2.80138,0.90757 4.82715,3.53798 4.82715,6.64224 z m 0,0" />
    <path
       style="fill:#838383;stroke-width:0.07339453"
       inkscape:connector-curvature="0"
       id="path14"
       d="m 256.76647,-211.60605 c 0,1.87104 -1.51739,3.38805 -3.38889,3.38805 -1.87179,0 -3.3889,-1.51701 -3.3889,-3.38805 0,-1.87133 1.51711,-3.38806 3.3889,-3.38806 1.8715,0 3.38889,1.51673 3.38889,3.38806 z m 0,0" />
    <path
       style="fill:#5a5a5a;stroke-width:0.07339453"
       inkscape:connector-curvature="0"
       id="path16"
       d="m 256.76619,-211.60577 c 0,1.87047 -1.51653,3.38749 -3.38833,3.38749 -1.05575,0 -1.99852,-0.48246 -2.61901,-1.23867 0.3349,0.11209 0.69332,0.172 1.06607,0.172 1.87179,0 3.38918,-1.51616 3.38918,-3.38748 0,-0.8167 -0.28902,-1.56461 -0.77016,-2.14968 1.34879,0.44633 2.32225,1.7171 2.32225,3.21634 z m 0,0" />
    <path
       style="fill:#ff5770;stroke-width:0.07339453"
       inkscape:connector-curvature="0"
       id="path18"
       d="m 264.0925,-224.53995 -0.70135,-4.36328 c -0.0212,-0.13272 0.0224,-0.26774 0.11728,-0.36263 l 4.06788,-4.06658 c 0.24573,-0.24596 0.66665,-0.10263 0.71167,0.24194 l 0.50264,3.8536 z m 0,0" />
    <path
       style="fill:#ff5770;stroke-width:0.07339453"
       inkscape:connector-curvature="0"
       id="path20"
       d="m 266.30551,-222.22372 4.36407,0.70117 c 0.13276,0.0215 0.26781,-0.0224 0.36272,-0.11724 l 4.06788,-4.06659 c 0.24573,-0.24595 0.10265,-0.66677 -0.24229,-0.71149 l -3.85427,-0.50281 z m 0,0" />
    <path
       style="fill:#ff435f;stroke-width:0.07339453"
       inkscape:connector-curvature="0"
       id="path22"
       d="m 275.09989,-225.70666 -4.06759,4.06687 c -0.0952,0.0949 -0.22996,0.13874 -0.36301,0.11724 l -1.16299,-0.1869 4.78386,-4.78267 0.56773,0.074 c 0.34465,0.045 0.48802,0.46583 0.242,0.7115 z m 0,0" />
    <path
       style="fill:#e7e7e7;stroke-width:0.07339453"
       inkscape:connector-curvature="0"
       id="path24"
       d="m 252.72354,-210.87019 c -0.61963,-0.61976 -0.62049,-1.62423 -0.001,-2.24485 l 16.33402,-16.38416 c 0.62021,-0.62206 1.6275,-0.62263 2.24856,-0.002 0.61992,0.61977 0.62078,1.62423 0.002,2.24485 l -16.33431,16.38416 c -0.6202,0.62206 -1.62721,0.62263 -2.24856,0.002 z m 0,0" />
    <path
       style="fill:#cecece;stroke-width:0.07339453"
       inkscape:connector-curvature="0"
       id="path26"
       d="m 271.77035,-228.37778 c 0,0.40591 -0.15484,0.81154 -0.46394,1.12171 l -16.33402,16.38473 c -0.62078,0.6212 -1.62721,0.62206 -2.24856,0.001 -0.12186,-0.12183 -0.21964,-0.25828 -0.2939,-0.40419 0.50293,0.0992 1.04428,-0.0467 1.43423,-0.43659 l 16.33403,-16.38473 c 0.3091,-0.30988 0.46393,-0.71579 0.46393,-1.1217 0,-0.24682 -0.0573,-0.4945 -0.17261,-0.71953 0.29849,0.0588 0.58436,0.20497 0.81518,0.43573 0.30996,0.30988 0.46566,0.71637 0.46566,1.12314 z m 0,0" />
  </g>
</svg>
