<?xml version="1.0" encoding="UTF-8" standalone="no"?>
<svg
   xmlns:dc="http://purl.org/dc/elements/1.1/"
   xmlns:cc="http://creativecommons.org/ns#"
   xmlns:rdf="http://www.w3.org/1999/02/22-rdf-syntax-ns#"
   xmlns:svg="http://www.w3.org/2000/svg"
   xmlns="http://www.w3.org/2000/svg"
   xmlns:sodipodi="http://sodipodi.sourceforge.net/DTD/sodipodi-0.dtd"
   xmlns:inkscape="http://www.inkscape.org/namespaces/inkscape"
   height="55"
   viewBox="1 0 41.330721 41.249999"
   width="55"
   version="1.1"
   id="svg42"
   sodipodi:docname="icon_3.svg"
   inkscape:version="0.92.4 (33fec40, 2019-01-16)">
  <metadata
     id="metadata48">
    <rdf:RDF>
      <cc:Work
         rdf:about="">
        <dc:format>image/svg+xml</dc:format>
        <dc:type
           rdf:resource="http://purl.org/dc/dcmitype/StillImage" />
        <dc:title></dc:title>
      </cc:Work>
    </rdf:RDF>
  </metadata>
  <defs
     id="defs46" />
  <sodipodi:namedview
     pagecolor="#ffffff"
     bordercolor="#666666"
     borderopacity="1"
     objecttolerance="10"
     gridtolerance="10"
     guidetolerance="10"
     inkscape:pageopacity="0"
     inkscape:pageshadow="2"
     inkscape:window-width="763"
     inkscape:window-height="480"
     id="namedview44"
     showgrid="false"
     units="px"
     inkscape:zoom="0.34637965"
     inkscape:cx="340.66667"
     inkscape:cy="340.66667"
     inkscape:window-x="0"
     inkscape:window-y="0"
     inkscape:window-maximized="0"
     inkscape:current-layer="svg42" />
  <g
     id="g70"
     transform="matrix(0.07338552,0,0,0.07348419,2.8786674,1.801565)">
    <path
       id="path2"
       d="M 512,44.457031 V 320.30078 c 0,24.52344 -19.89453,44.41797 -44.42969,44.41797 H 44.417969 C 19.882812,364.71875 0,344.82422 0,320.30078 V 44.457031 C 0,20.1875 19.675781,0.5 43.949219,0.5 H 468.04297 C 492.3125,0.5 512,20.1875 512,44.457031 Z m 0,0"
       inkscape:connector-curvature="0"
       style="fill:#c4e2f2" />
    <path
       id="path4"
       d="m 359.26562,423.98828 -103.26953,23.53125 -103.27734,-23.53125 14.14844,-59.26562 84.74218,-31.16016 93.50782,31.16016 4.57812,19.18359 z m 0,0"
       inkscape:connector-curvature="0"
       style="fill:#2d303b" />
    <path
       id="path6"
       d="m 512,315.06641 v 5.22265 c 0,24.53516 -19.89453,44.42969 -44.42969,44.42969 H 44.417969 C 19.882812,364.71875 0,344.82422 0,320.28906 v -5.22265 z m 0,0"
       inkscape:connector-curvature="0"
       style="fill:#3c3f4d" />
    <path
       id="path8"
       d="M 359.26562,423.98828 H 201.30859 l 9.57032,-40.08203 h 138.8164 z m 0,0"
       inkscape:connector-curvature="0"
       style="fill:#3c3f4d" />
    <path
       id="path10"
       d="m 420.12891,456.98437 v 14.07422 H 91.867188 v -14.07422 c 0,-18.22265 14.773442,-32.99609 32.996092,-32.99609 h 262.26953 c 18.22266,0 32.9961,14.77344 32.9961,32.99609 z m 0,0"
       inkscape:connector-curvature="0"
       style="fill:#2d303b" />
    <path
       id="path12"
       d="M 457.25781,364.71875 H 225.40625 l 11.35547,-109.33594 h 209.13672 z m 0,0"
       inkscape:connector-curvature="0"
       style="fill:#83b2c6" />
    <path
       id="path14"
       d="m 239.375,132.20703 -2.73828,20.89453 -8.76563,66.76172 c -1.57812,12.02344 -11.8164,21.01172 -23.94922,21.01172 H 99.285156 c -12.128906,0 -22.371094,-8.98828 -23.949218,-21.01172 L 63.832031,132.20703 151.60547,108.69531 Z m 0,0"
       inkscape:connector-curvature="0"
       style="fill:#1f81a3" />
    <path
       id="path16"
       d="m 236.63672,153.10156 -8.76563,66.76172 c -1.57812,12.02344 -11.8164,21.01172 -23.94922,21.01172 h -71.19921 c -12.13282,0 -22.3711,-8.98828 -23.94922,-21.01172 l -5.94141,-45.24609 c -1.49609,-11.39844 7.37891,-21.51563 18.875,-21.51563 z m 0,0"
       inkscape:connector-curvature="0"
       style="fill:#2c92bf" />
    <path
       id="path18"
       d="m 251.39062,108.57031 v 12.78907 c 0,5.98828 -4.85546,10.84765 -10.84375,10.84765 H 62.664062 c -5.988281,0 -10.847656,-4.85937 -10.847656,-10.84765 v -12.78907 c 0,-5.98828 4.859375,-10.847654 10.847656,-10.847654 H 240.54687 c 5.98829,0 10.84375,4.859374 10.84375,10.847654 z m 0,0"
       inkscape:connector-curvature="0"
       style="fill:#1f81a3" />
    <path
       id="path20"
       d="m 251.39062,108.57031 v 12.78907 c 0,5.98828 -4.85546,10.84765 -10.84375,10.84765 H 104.45703 c -5.984374,0 -10.843749,-4.85937 -10.843749,-10.84765 v -12.78907 c 0,-5.98828 4.859375,-10.847654 10.843749,-10.847654 h 136.08984 c 5.98829,0 10.84375,4.859374 10.84375,10.847654 z m 0,0"
       inkscape:connector-curvature="0"
       style="fill:#2c92bf" />
    <path
       id="path22"
       d="m 151.60547,48.613281 c -9.8125,0 -17.76563,7.953125 -17.76563,17.761719 v 84.63672 c 0,9.8125 7.95313,17.76562 17.76563,17.76562 9.80859,0 17.76172,-7.95312 17.76172,-17.76562 V 66.375 c 0,-9.808594 -7.95313,-17.761719 -17.76172,-17.761719 z m 0,0"
       inkscape:connector-curvature="0"
       style="fill:#3c3f4d" />
    <path
       id="path24"
       d="M 456.21484,364.71875 H 224.35938 l 5.15234,-49.65234 H 451.0625 Z m 0,0"
       inkscape:connector-curvature="0"
       style="fill:#2d303b" />
    <path
       id="path26"
       d="M 459.48047,255.37891 H 250.34766 L 223.70313,511.8125 H 486.125 Z m 0,0"
       inkscape:connector-curvature="0"
       style="fill:#ff491f" />
    <path
       id="path28"
       d="M 336.79687,338.29297 H 191.42578 L 172.90625,511.8125 h 182.41406 z m 0,0"
       inkscape:connector-curvature="0"
       style="fill:#ffe14d" />
    <path
       id="path30"
       d="m 411.33594,288.29297 c -4.33203,0 -7.83985,-3.50781 -7.83985,-7.83594 v -51.71484 c 0,-26.79297 -21.79297,-48.58594 -48.58203,-48.58594 -26.79297,0 -48.58594,21.79688 -48.58594,48.58594 v 51.71484 c 0,4.32813 -3.50781,7.83594 -7.83593,7.83594 -4.32813,0 -7.83594,-3.50781 -7.83594,-7.83594 v -51.71484 c 0,-35.4336 28.82422,-64.25781 64.25781,-64.25781 35.42969,0 64.25781,28.82421 64.25781,64.25781 v 51.71484 c 0,4.32813 -3.50781,7.83594 -7.83593,7.83594 z m 0,0"
       inkscape:connector-curvature="0"
       style="fill:#ffffff" />
    <path
       id="path32"
       d="m 264.11328,445.16406 c -22.90234,0 -41.53516,-18.63281 -41.53516,-41.53515 v -33.69532 c 0,-4.32812 3.51172,-7.83593 7.83985,-7.83593 4.32812,0 7.83594,3.50781 7.83594,7.83593 v 33.69532 c 0,14.25781 11.60156,25.85937 25.85937,25.85937 14.26172,0 25.85938,-11.59766 25.85938,-25.85937 v -33.69532 c 0,-4.32812 3.50781,-7.83593 7.83593,-7.83593 4.32813,0 7.83594,3.50781 7.83594,7.83593 v 33.69532 c 0,22.90234 -18.62891,41.53515 -41.53125,41.53515 z m 0,0"
       inkscape:connector-curvature="0"
       style="fill:#3c3f4d" />
    <path
       id="path34"
       d="m 330.07812,87.945312 h -33.4375 c -4.32812,0 -7.83593,-3.507812 -7.83593,-7.835937 0,-4.328125 3.50781,-7.835937 7.83593,-7.835937 h 33.4375 c 4.32813,0 7.83594,3.507812 7.83594,7.835937 0,4.328125 -3.50781,7.835937 -7.83594,7.835937 z m 0,0"
       inkscape:connector-curvature="0"
       style="fill:#ff491f" />
    <path
       id="path36"
       d="M 473.22656,87.945312 H 364.55859 c -4.32812,0 -7.83593,-3.507812 -7.83593,-7.835937 0,-4.328125 3.50781,-7.835937 7.83593,-7.835937 h 108.66797 c 4.33203,0 7.83985,3.507812 7.83985,7.835937 0,4.328125 -3.51172,7.835937 -7.83985,7.835937 z m 0,0"
       inkscape:connector-curvature="0"
       style="fill:#3c3f4d" />
    <path
       id="path38"
       d="m 330.07812,124.51953 h -33.4375 c -4.32812,0 -7.83593,-3.51172 -7.83593,-7.83984 0,-4.32813 3.50781,-7.83594 7.83593,-7.83594 h 33.4375 c 4.32813,0 7.83594,3.50781 7.83594,7.83594 0,4.32812 -3.50781,7.83984 -7.83594,7.83984 z m 0,0"
       inkscape:connector-curvature="0"
       style="fill:#ff491f" />
    <path
       id="path40"
       d="M 473.22656,124.51953 H 364.55859 c -4.32812,0 -7.83593,-3.51172 -7.83593,-7.83984 0,-4.32813 3.50781,-7.83594 7.83593,-7.83594 h 108.66797 c 4.33203,0 7.83985,3.50781 7.83985,7.83594 0,4.32812 -3.51172,7.83984 -7.83985,7.83984 z m 0,0"
       inkscape:connector-curvature="0"
       style="fill:#3c3f4d" />
  </g>
</svg>
