<?xml version="1.0" encoding="UTF-8" standalone="no"?>
<!-- Generator: Adobe Illustrator 19.0.0, SVG Export Plug-In . SVG Version: 6.00 Build 0)  -->

<svg
   xmlns:dc="http://purl.org/dc/elements/1.1/"
   xmlns:cc="http://creativecommons.org/ns#"
   xmlns:rdf="http://www.w3.org/1999/02/22-rdf-syntax-ns#"
   xmlns:svg="http://www.w3.org/2000/svg"
   xmlns="http://www.w3.org/2000/svg"
   xmlns:sodipodi="http://sodipodi.sourceforge.net/DTD/sodipodi-0.dtd"
   xmlns:inkscape="http://www.inkscape.org/namespaces/inkscape"
   version="1.1"
   id="Capa_1"
   x="0px"
   y="0px"
   viewBox="0 0 55.000003 55.000003"
   xml:space="preserve"
   sodipodi:docname="icon_6.svg"
   width="55"
   height="55"
   inkscape:version="0.92.4 (33fec40, 2019-01-16)"><metadata
   id="metadata260"><rdf:RDF><cc:Work
       rdf:about=""><dc:format>image/svg+xml</dc:format><dc:type
         rdf:resource="http://purl.org/dc/dcmitype/StillImage" /><dc:title></dc:title></cc:Work></rdf:RDF></metadata><defs
   id="defs258" /><sodipodi:namedview
   pagecolor="#ffffff"
   bordercolor="#666666"
   borderopacity="1"
   objecttolerance="10"
   gridtolerance="10"
   guidetolerance="10"
   inkscape:pageopacity="0"
   inkscape:pageshadow="2"
   inkscape:window-width="1920"
   inkscape:window-height="1080"
   id="namedview256"
   showgrid="false"
   inkscape:zoom="1.6601531"
   inkscape:cx="256.00049"
   inkscape:cy="256.00049"
   inkscape:window-x="0"
   inkscape:window-y="0"
   inkscape:window-maximized="1"
   inkscape:current-layer="Capa_1" />





































<g
   id="g312"
   transform="matrix(0.09765587,0,0,0.09823337,2.4999996,2.3522574)"><path
     id="path155"
     d="M 244.153,192.247 V 43.069 c 0,-8.893 7.209,-16.102 16.102,-16.102 h 212.539 c 8.893,0 16.102,7.209 16.102,16.102 v 149.178 c 0,8.893 -7.209,16.102 -16.102,16.102 H 260.256 c -8.894,0 -16.103,-7.209 -16.103,-16.102 z"
     style="fill:#46738c"
     inkscape:connector-curvature="0" /><path
     id="path157"
     d="m 256.591,154.414 c -2.366,0 -4.708,-1.044 -6.286,-3.046 -2.734,-3.469 -2.14,-8.498 1.329,-11.233 l 65.56,-51.694 c 3.47,-2.735 8.499,-2.14 11.233,1.329 2.734,3.469 2.14,8.498 -1.329,11.233 l -65.56,51.694 c -1.469,1.155 -3.214,1.717 -4.947,1.717 z"
     style="fill:#ff8c46"
     inkscape:connector-curvature="0" /><circle
     id="circle159"
     r="34.838001"
     cy="36.341999"
     cx="128.289"
     style="fill:#ffb69e" /><path
     id="path161"
     d="m 152.44,426.88 c -11.198,0 -20.275,-9.078 -20.275,-20.275 V 244.544 c 0,-11.198 9.078,-20.275 20.275,-20.275 11.197,0 20.275,9.078 20.275,20.275 v 162.061 c 0.001,11.197 -9.077,20.275 -20.275,20.275 z"
     style="fill:#343e6b"
     inkscape:connector-curvature="0" /><path
     id="path163"
     d="m 103.496,426.88 c -11.198,0 -20.275,-9.078 -20.275,-20.275 V 244.544 c 0,-11.198 9.078,-20.275 20.275,-20.275 11.197,0 20.275,9.078 20.275,20.275 v 162.061 c 0.001,11.197 -9.077,20.275 -20.275,20.275 z"
     style="fill:#414b82"
     inkscape:connector-curvature="0" /><path
     id="path165"
     d="m 270.633,137.566 c -4.897,-7.887 -15.259,-10.311 -23.147,-5.415 l -34.045,21.138 v -31.431 c -0.109,-21.824 -18.112,-39.58 -39.937,-39.58 h -0.622 c -10.746,0 -79.151,0 -90.268,0 -22.28,0 -40.497,17.847 -40.607,39.783 0,0.028 0,0.057 0,0.085 v 124.128 c 0,9.331 7.565,16.896 16.896,16.896 9.331,0 16.896,-7.565 16.896,-16.896 V 122.203 c 0.036,-3.213 3.275,-6.132 6.815,-6.132 h 0.608 v 128.474 h 89.495 c 0,-11.978 0,-115.178 0,-128.646 0.09,0 0.878,0 0.788,0 3.38,0 6.453,2.75 6.47,6.13 v 61.475 c 0.066,13.163 14.554,21.102 25.676,14.197 l 59.571,-36.986 c 7.884,-4.899 10.307,-15.262 5.411,-23.149 z"
     style="fill:#252d5c"
     inkscape:connector-curvature="0" /><path
     id="path167"
     d="m 270.633,137.566 c -4.897,-7.887 -15.259,-10.311 -23.147,-5.415 l -34.045,21.138 v -31.431 c -0.109,-21.824 -18.112,-39.58 -39.937,-39.58 -5.771,0 -39.991,0 -45.541,0 v 162.265 h 44.753 c 0,-11.978 0,-115.178 0,-128.646 0.09,0 0.878,0 0.788,0 3.38,0 6.453,2.75 6.47,6.13 v 61.475 c 0.066,13.163 14.554,21.102 25.676,14.197 l 59.571,-36.986 c 7.885,-4.897 10.308,-15.26 5.412,-23.147 z"
     style="fill:#1b224a"
     inkscape:connector-curvature="0" /><path
     id="path169"
     d="m 270.633,137.566 c -4.897,-7.887 -15.259,-10.311 -23.147,-5.415 l 17.733,28.562 c 7.887,-4.897 10.31,-15.26 5.414,-23.147 z"
     style="fill:#ffb69e"
     inkscape:connector-curvature="0" /><g
     id="g175">
	
		<rect
   id="rect171"
   height="7.1659999"
   width="33.618999"
   style="fill:#ffffff"
   transform="matrix(-0.5226,-0.8526,0.8526,-0.5226,259.3598,441.7484)"
   y="144.67599"
   x="236.55" />
	<path
   id="path173"
   d="m 42.001,237.56 v 8.715 c 0,9.331 7.565,16.896 16.896,16.896 9.331,0 16.896,-7.565 16.896,-16.896 v -8.715 z"
   style="fill:#ffffff"
   inkscape:connector-curvature="0" />
</g><path
     id="path177"
     d="m 42.001,245.84 v 0.435 c 0,9.331 7.565,16.896 16.896,16.896 9.331,0 16.896,-7.565 16.896,-16.896 v -0.435 z"
     style="fill:#ffb69e"
     inkscape:connector-curvature="0" /><polygon
     id="polygon179"
     points="127.963,149.934 153.75,82.278 102.183,82.278 "
     style="fill:#ffffff" /><path
     id="path181"
     d="m 139.176,105.31 -5.727,-10.416 4.936,-8.977 c 0.898,-1.633 -0.285,-3.637 -2.151,-3.637 h -16.547 c -1.864,0 -3.05,2.002 -2.151,3.637 l 4.953,9.007 -5.711,10.388 c -0.791,1.439 -1.048,3.109 -0.726,4.719 l 3.523,17.884 8.388,22.021 8.396,-22.024 3.543,-17.879 c 0.323,-1.612 0.065,-3.284 -0.726,-4.723 z"
     style="fill:#ff3c3c"
     inkscape:connector-curvature="0" /><rect
     id="rect183"
     height="6.8829999"
     width="22.319"
     style="fill:#252d5c"
     y="134.26199"
     x="140.44299" /><g
     id="g189">
	<circle
   id="circle185"
   r="33.992001"
   cy="328.099"
   cx="429.11401"
   style="fill:#80391b" />
	<path
   id="path187"
   d="m 472.996,372.929 c -9.989,0 -78.063,0 -88.05,0 -21.294,0 -38.897,17.324 -39.004,38.618 v 38.035 h 32.803 v -37.871 c 0.016,-3.298 2.903,-5.981 6.201,-5.981 h 0.323 v 43.851 h 86.874 V 405.73 h 0.854 c 3.298,0 6.184,2.683 6.201,5.981 v 37.871 H 512 v -38.035 c -0.107,-21.293 -17.708,-38.618 -39.004,-38.618 z"
   style="fill:#80391b"
   inkscape:connector-curvature="0" />
</g><path
     id="path191"
     d="M 472.996,372.929 H 446.11 c -10.47,8.301 -24.214,7.978 -33.761,0 h -27.402 c -21.294,0 -38.897,17.324 -39.004,38.618 v 23.873 h 32.803 v -23.708 c 0.016,-3.298 2.903,-5.981 6.201,-5.981 h 0.323 v 43.851 h 86.874 v -43.851 h 0.854 c 3.298,0 6.184,2.683 6.201,5.981 v 23.708 h 32.803 v -23.873 c -0.109,-21.293 -17.71,-38.618 -39.006,-38.618 z"
     style="fill:#55c7a6"
     inkscape:connector-curvature="0" /><g
     id="g197">
	<circle
   id="circle193"
   r="33.992001"
   cy="328.099"
   cx="256.15799"
   style="fill:#ffb69e" />
	<path
   id="path195"
   d="m 300.039,372.929 c -9.989,0 -78.063,0 -88.05,0 -21.294,0 -38.897,17.324 -39.004,38.618 v 38.035 h 32.803 v -37.871 c 0.016,-3.298 2.903,-5.981 6.201,-5.981 h 0.323 v 43.851 h 86.874 V 405.73 h 0.854 c 3.298,0 6.184,2.683 6.201,5.981 v 37.871 h 32.803 v -38.035 c -0.107,-21.293 -17.71,-38.618 -39.005,-38.618 z"
   style="fill:#ffb69e"
   inkscape:connector-curvature="0" />
</g><path
     id="path199"
     d="m 300.039,372.929 h -28.227 c -10.47,8.301 -24.214,7.978 -33.761,0 H 211.99 c -21.294,0 -38.897,17.324 -39.004,38.618 v 23.873 h 32.803 v -23.708 c 0.016,-3.298 2.903,-5.981 6.201,-5.981 h 0.323 v 43.851 h 86.874 v -43.851 h 0.854 c 3.298,0 6.184,2.683 6.201,5.981 v 23.708 h 32.803 v -23.873 c -0.108,-21.293 -17.711,-38.618 -39.006,-38.618 z"
     style="fill:#252d5c"
     inkscape:connector-curvature="0" /><g
     id="g205">
	<circle
   id="circle201"
   r="33.992001"
   cy="327.55801"
   cx="83.162003"
   style="fill:#ffb69e" />
	<path
   id="path203"
   d="m 127.054,372.387 c -9.989,0 -78.063,0 -88.05,0 -21.294,0 -38.897,17.324 -39.004,38.618 v 38.036 H 32.803 V 411.17 c 0.016,-3.298 2.903,-5.981 6.201,-5.981 h 0.323 V 449.04 H 126.2 v -43.852 h 0.854 c 3.298,0 6.184,2.683 6.201,5.981 v 37.871 h 32.803 v -38.036 c -0.107,-21.293 -17.71,-38.617 -39.004,-38.617 z"
   style="fill:#ffb69e"
   inkscape:connector-curvature="0" />
</g><path
     id="path207"
     d="M 127.054,372.387 H 98.826 c -10.47,8.301 -24.214,7.978 -33.761,0 H 39.004 C 17.71,372.387 0.107,389.711 0,411.005 v 23.873 H 32.803 V 411.17 c 0.016,-3.298 2.903,-5.981 6.201,-5.981 h 0.323 V 449.04 H 126.2 v -43.852 h 0.854 c 3.298,0 6.184,2.683 6.201,5.981 v 23.708 h 32.803 v -23.873 c -0.107,-21.293 -17.71,-38.617 -39.004,-38.617 z"
     style="fill:#78beff"
     inkscape:connector-curvature="0" /><g
     id="g213">
	<circle
   id="circle209"
   r="33.992001"
   cy="389.017"
   cx="352.26501"
   style="fill:#ffb69e" />
	<path
   id="path211"
   d="m 396.153,433.843 c -9.989,0 -78.063,0 -88.05,0 -21.294,0 -38.897,17.324 -39.004,38.618 v 38.035 h 32.803 v -37.871 c 0.016,-3.298 2.903,-5.981 6.201,-5.981 h 0.323 v 43.851 H 395.3 v -43.851 h 0.854 c 3.298,0 6.184,2.683 6.201,5.981 v 37.871 h 32.803 v -38.035 c -0.109,-21.295 -17.711,-38.618 -39.005,-38.618 z"
   style="fill:#ffb69e"
   inkscape:connector-curvature="0" />
</g><path
     id="path215"
     d="m 396.153,433.843 h -26.886 c -10.47,8.301 -24.214,7.978 -33.761,0 h -27.402 c -21.294,0 -38.897,17.324 -39.004,38.618 v 23.873 h 32.803 v -23.708 c 0.016,-3.298 2.903,-5.981 6.201,-5.981 h 0.323 v 43.851 H 395.3 v -43.851 h 0.854 c 3.298,0 6.184,2.683 6.201,5.981 v 23.708 h 32.803 v -23.873 c -0.109,-21.295 -17.711,-38.618 -39.005,-38.618 z"
     style="fill:#78beff"
     inkscape:connector-curvature="0" /><g
     id="g221">
	<circle
   id="circle217"
   r="33.992001"
   cy="389.017"
   cx="179.308"
   style="fill:#ba6746" />
	<path
   id="path219"
   d="m 223.196,433.843 c -9.989,0 -78.063,0 -88.05,0 -21.294,0 -38.897,17.324 -39.004,38.618 v 38.035 h 32.803 v -37.871 c 0.016,-3.298 2.903,-5.981 6.201,-5.981 h 0.323 v 43.851 h 86.874 v -43.851 h 0.854 c 3.298,0 6.184,2.683 6.201,5.981 v 37.871 H 262.2 v -38.035 c -0.108,-21.295 -17.709,-38.618 -39.004,-38.618 z"
   style="fill:#ba6746"
   inkscape:connector-curvature="0" />
</g><path
     id="path223"
     d="m 223.196,433.843 h -28.227 c -10.47,8.301 -24.214,7.978 -33.761,0 h -26.062 c -21.294,0 -38.897,17.324 -39.004,38.618 v 23.873 h 32.803 v -23.708 c 0.016,-3.298 2.903,-5.981 6.201,-5.981 h 0.323 v 43.851 h 86.874 v -43.851 h 0.854 c 3.298,0 6.184,2.683 6.201,5.981 v 23.708 h 32.803 v -23.873 c -0.109,-21.295 -17.71,-38.618 -39.005,-38.618 z"
     style="fill:#ff3c3c"
     inkscape:connector-curvature="0" /><g
     id="g225">
</g><g
     id="g227">
</g><g
     id="g229">
</g><g
     id="g231">
</g><g
     id="g233">
</g><g
     id="g235">
</g><g
     id="g237">
</g><g
     id="g239">
</g><g
     id="g241">
</g><g
     id="g243">
</g><g
     id="g245">
</g><g
     id="g247">
</g><g
     id="g249">
</g><g
     id="g251">
</g><g
     id="g253">
</g></g>
</svg>