<?xml version="1.0" encoding="UTF-8" standalone="no"?>
<svg
   xmlns:dc="http://purl.org/dc/elements/1.1/"
   xmlns:cc="http://creativecommons.org/ns#"
   xmlns:rdf="http://www.w3.org/1999/02/22-rdf-syntax-ns#"
   xmlns:svg="http://www.w3.org/2000/svg"
   xmlns="http://www.w3.org/2000/svg"
   xmlns:sodipodi="http://sodipodi.sourceforge.net/DTD/sodipodi-0.dtd"
   xmlns:inkscape="http://www.inkscape.org/namespaces/inkscape"
   height="55"
   viewBox="-31 0 41.249999 41.249999"
   width="55"
   version="1.1"
   id="svg128"
   sodipodi:docname="icon_5.svg"
   inkscape:version="0.92.4 (33fec40, 2019-01-16)">
  <metadata
     id="metadata134">
    <rdf:RDF>
      <cc:Work
         rdf:about="">
        <dc:format>image/svg+xml</dc:format>
        <dc:type
           rdf:resource="http://purl.org/dc/dcmitype/StillImage" />
        <dc:title></dc:title>
      </cc:Work>
    </rdf:RDF>
  </metadata>
  <defs
     id="defs132" />
  <sodipodi:namedview
     pagecolor="#ffffff"
     bordercolor="#666666"
     borderopacity="1"
     objecttolerance="10"
     gridtolerance="10"
     guidetolerance="10"
     inkscape:pageopacity="0"
     inkscape:pageshadow="2"
     inkscape:window-width="1920"
     inkscape:window-height="1080"
     id="namedview130"
     showgrid="false"
     units="px"
     inkscape:zoom="1.2451172"
     inkscape:cx="341.33333"
     inkscape:cy="341.33333"
     inkscape:window-x="0"
     inkscape:window-y="0"
     inkscape:window-maximized="1"
     inkscape:current-layer="svg128" />
  <g
     id="g154"
     transform="matrix(0.08333333,0,0,0.07324219,-29.125,1.8749989)">
    <path
       id="path92"
       d="m 390,75 v 242 c 0,8.39844 -6.59766,15 -15,15 -8.40234,0 -15,-6.60156 -15,-15 V 75 C 360,61.800781 354.30078,49.199219 344.09766,40.800781 333.89844,32.101562 320.69922,28.5 307.19922,30.597656 286.19922,34.199219 270,54.601562 270,78.300781 V 422 c 0,49.5 -40.5,90 -90,90 -31.19922,0 -58.80078,-16.19922 -75,-40.19922 C 95.699219,457.39844 90,440.30078 90,422 v -45 c 0,-8.40234 6.597656,-15 15,-15 8.40234,0 15,6.59766 15,15 v 45 c 0,33 27,60 60,60 33,0 60,-27 60,-60 V 78.300781 C 240,39.898438 267,6.898438 302.40234,0.898438 324.60156,-2.402344 346.80078,3.601562 363.60156,18 380.39844,32.101562 390,53.097656 390,75 Z m 0,0"
       inkscape:connector-curvature="0"
       style="fill:#0b799d" />
    <path
       id="path94"
       d="m 390,75 v 242 c 0,8.39844 -6.59766,15 -15,15 -8.40234,0 -15,-6.60156 -15,-15 V 75 C 360,61.800781 354.30078,49.199219 344.09766,40.800781 333.89844,32.101562 320.69922,28.5 307.19922,30.597656 286.19922,34.199219 270,54.601562 270,78.300781 V 422 c 0,49.5 -40.5,90 -90,90 -31.19922,0 -58.80078,-16.19922 -75,-40.19922 V 362 c 8.40234,0 15,6.59766 15,15 v 45 c 0,33 27,60 60,60 33,0 60,-27 60,-60 V 78.300781 C 240,39.898438 267,6.898438 302.40234,0.898438 324.60156,-2.402344 346.80078,3.601562 363.60156,18 368.10156,21.597656 372,25.800781 375,30.300781 c 9.90234,12.898438 15,28.5 15,44.699219 z m 0,0"
       inkscape:connector-curvature="0"
       style="fill:#07485e" />
    <path
       id="path96"
       d="m 390,75 v 242 c 0,8.39844 -6.59766,15 -15,15 V 30.300781 c 9.90234,12.898438 15,28.5 15,44.699219 z m 0,0"
       inkscape:connector-curvature="0"
       style="fill:#03232e" />
    <path
       id="path98"
       d="m 150,312 v 34.40234 C 150,370.5 131.33203,390.875 107.26563,392.04687 81.328125,393.30859 60,372.75 60,347.10156 V 312 c 0,-8.28516 6.714844,-15 15,-15 h 60 c 8.28516,0 15,6.71484 15,15 z m 0,0"
       inkscape:connector-curvature="0"
       style="fill:#ff3939" />
    <path
       id="path100"
       d="m 135,297 c 8.28516,0 15,6.71484 15,15 v 35.10156 c 0,24.89844 -20.09766,45 -45,45 V 297 Z m 0,0"
       inkscape:connector-curvature="0"
       style="fill:#cd0000" />
    <path
       id="path102"
       d="m 180,15 v 92 c 0,8.39844 -6.59766,15 -15,15 H 45 c -8.402344,0 -15,-6.60156 -15,-15 V 15 C 30,6.597656 36.597656,0 45,0 h 120 c 8.40234,0 15,6.597656 15,15 z m 0,0"
       inkscape:connector-curvature="0"
       style="fill:#e1ebf0" />
    <path
       id="path104"
       d="m 180,15 v 92 c 0,8.39844 -6.59766,15 -15,15 H 105 V 0 h 60 c 8.40234,0 15,6.597656 15,15 z m 0,0"
       inkscape:connector-curvature="0"
       style="fill:#b4d2d7" />
    <path
       id="path106"
       d="M 195,92 H 15 C 6.597656,92 0,98.597656 0,107 v 120 c 0,57.89844 47.101562,105 105,105 57.89844,0 105,-47.10156 105,-105 V 107 c 0,-8.402344 -6.59766,-15 -15,-15 z m 0,0"
       inkscape:connector-curvature="0"
       style="fill:#ff8859" />
    <path
       id="path108"
       d="m 210,107 v 120 c 0,57.89844 -47.10156,105 -105,105 V 92 h 90 c 8.40234,0 15,6.597656 15,15 z m 0,0"
       inkscape:connector-curvature="0"
       style="fill:#ff3939" />
    <path
       id="path110"
       d="m 420,437 v 60 c 0,8.39844 -6.59766,15 -15,15 h -60 c -8.40234,0 -15,-6.60156 -15,-15 v -60 c 0,-8.40234 6.59766,-15 15,-15 h 60 c 8.40234,0 15,6.59766 15,15 z m 0,0"
       inkscape:connector-curvature="0"
       style="fill:#e1ebf0" />
    <path
       id="path112"
       d="m 420,437 v 60 c 0,8.39844 -6.59766,15 -15,15 h -30 v -90 h 30 c 8.40234,0 15,6.59766 15,15 z m 0,0"
       inkscape:connector-curvature="0"
       style="fill:#b4d2d7" />
    <path
       id="path114"
       d="m 375,302 c -41.39844,0 -75,33.60156 -75,75 v 60 c 0,8.39844 6.59766,15 15,15 h 120 c 8.40234,0 15,-6.60156 15,-15 v -60 c 0,-41.39844 -33.60156,-75 -75,-75 z m 0,0"
       inkscape:connector-curvature="0"
       style="fill:#ff8859" />
    <g
       id="g122"
       style="fill:#ff3939">
      <path
         id="path116"
         d="m 450,377 v 60 c 0,8.39844 -6.59766,15 -15,15 H 375 V 302 c 41.39844,0 75,33.60156 75,75 z m 0,0"
         inkscape:connector-curvature="0" />
      <path
         id="path118"
         d="m 150,167 c 0,8.39844 -6.59766,15 -15,15 H 75 c -8.402344,0 -15,-6.60156 -15,-15 0,-8.40234 6.597656,-15 15,-15 h 60 c 8.40234,0 15,6.59766 15,15 z m 0,0"
         inkscape:connector-curvature="0" />
      <path
         id="path120"
         d="m 150,227 c 0,8.39844 -6.59766,15 -15,15 H 75 c -8.402344,0 -15,-6.60156 -15,-15 0,-8.40234 6.597656,-15 15,-15 h 60 c 8.40234,0 15,6.59766 15,15 z m 0,0"
         inkscape:connector-curvature="0" />
    </g>
    <path
       id="path124"
       d="m 150,227 c 0,8.39844 -6.59766,15 -15,15 h -30 v -30 h 30 c 8.40234,0 15,6.59766 15,15 z m 0,0"
       inkscape:connector-curvature="0"
       style="fill:#cd0000" />
    <path
       id="path126"
       d="m 135,182 h -30 v -30 h 30 c 8.40234,0 15,6.59766 15,15 0,8.39844 -6.59766,15 -15,15 z m 0,0"
       inkscape:connector-curvature="0"
       style="fill:#cd0000" />
  </g>
</svg>
