<?xml version="1.0" encoding="UTF-8" standalone="no"?>
<!-- Generator: Adobe Illustrator 19.0.0, SVG Export Plug-In . SVG Version: 6.00 Build 0)  -->

<svg
   xmlns:dc="http://purl.org/dc/elements/1.1/"
   xmlns:cc="http://creativecommons.org/ns#"
   xmlns:rdf="http://www.w3.org/1999/02/22-rdf-syntax-ns#"
   xmlns:svg="http://www.w3.org/2000/svg"
   xmlns="http://www.w3.org/2000/svg"
   xmlns:sodipodi="http://sodipodi.sourceforge.net/DTD/sodipodi-0.dtd"
   xmlns:inkscape="http://www.inkscape.org/namespaces/inkscape"
   version="1.1"
   id="Capa_1"
   x="0px"
   y="0px"
   viewBox="0 0 55 55"
   xml:space="preserve"
   sodipodi:docname="icon_4.svg"
   width="55"
   height="55"
   inkscape:version="0.92.4 (33fec40, 2019-01-16)"><metadata
   id="metadata288"><rdf:RDF><cc:Work
       rdf:about=""><dc:format>image/svg+xml</dc:format><dc:type
         rdf:resource="http://purl.org/dc/dcmitype/StillImage" /><dc:title></dc:title></cc:Work></rdf:RDF></metadata><defs
   id="defs286" /><sodipodi:namedview
   pagecolor="#ffffff"
   bordercolor="#666666"
   borderopacity="1"
   objecttolerance="10"
   gridtolerance="10"
   guidetolerance="10"
   inkscape:pageopacity="0"
   inkscape:pageshadow="2"
   inkscape:window-width="1920"
   inkscape:window-height="1080"
   id="namedview284"
   showgrid="false"
   inkscape:zoom="1.6601562"
   inkscape:cx="256"
   inkscape:cy="256"
   inkscape:window-x="0"
   inkscape:window-y="0"
   inkscape:window-maximized="1"
   inkscape:current-layer="Capa_1" />














































<g
   id="g347"
   transform="matrix(0.09765606,0,0,0.10742154,2.4999998,49.091729)"><path
     inkscape:connector-curvature="0"
     id="path169"
     d="M 488.727,-131.182 H 23.273 C 10.473,-131.182 0,-141.655 0,-154.455 v -256 c 0,-12.8 10.473,-23.273 23.273,-23.273 h 465.455 c 12.8,0 23.273,10.473 23.273,23.273 v 256 c -10e-4,12.8 -10.474,23.273 -23.274,23.273 z"
     style="fill:#0e9347" /><path
     inkscape:connector-curvature="0"
     id="path171"
     d="m 430.545,-224.273 c -26.764,0 -51.2,12.8 -65.164,33.745 -11.636,-5.817 -24.436,-10.472 -39.563,-10.472 -40.727,0 -74.473,30.255 -80.291,69.818 h 243.2 c 11.636,0 20.945,-8.145 23.273,-19.782 -4.655,-40.727 -39.564,-73.309 -81.455,-73.309 z"
     style="fill:#0d8944" /><path
     inkscape:connector-curvature="0"
     id="path173"
     d="M 442.182,-154.455 H 69.818 c 0,-25.6 -20.945,-46.545 -46.545,-46.545 v -162.909 c 25.6,0 46.545,-20.945 46.545,-46.545 h 372.364 c 0,25.6 20.945,46.545 46.545,46.545 V -201 c -25.6,0 -46.545,20.945 -46.545,46.545 z"
     style="fill:#3bb54a" /><g
     transform="translate(0,-457)"
     id="g183">
	<path
   inkscape:connector-curvature="0"
   id="path175"
   d="m 430.545,232.727 c -26.764,0 -51.2,12.8 -65.164,33.745 C 353.745,260.655 340.945,256 325.818,256 c -32.582,0 -60.509,18.618 -73.309,46.545 h 189.673 c 0,-25.6 19.782,-45.382 45.382,-46.545 -15.128,-13.964 -34.909,-23.273 -57.019,-23.273 z"
   style="fill:#0e9347" />
	<ellipse
   id="ellipse177"
   ry="104.727"
   rx="93.091003"
   cy="174.545"
   cx="256"
   style="fill:#0e9347" />
	<circle
   id="circle179"
   r="23.273001"
   cy="174.545"
   cx="116.364"
   style="fill:#0e9347" />
	<circle
   id="circle181"
   r="23.273001"
   cy="174.545"
   cx="395.63599"
   style="fill:#0e9347" />
</g><path
     inkscape:connector-curvature="0"
     id="path185"
     d="m 267.636,-294.091 h -23.273 c -6.982,0 -11.636,-4.655 -11.636,-11.636 0,-6.982 4.655,-11.636 11.636,-11.636 h 34.909 c 6.982,0 11.636,-4.655 11.636,-11.636 0,-6.982 -4.655,-11.636 -11.636,-11.636 h -11.636 c 0,-6.982 -4.655,-11.636 -11.636,-11.636 -6.982,0 -11.636,4.655 -11.636,11.636 -19.782,0 -34.909,15.127 -34.909,34.909 0,19.782 15.127,34.909 34.909,34.909 h 23.273 c 6.982,0 11.636,4.655 11.636,11.636 0,6.982 -4.655,11.636 -11.636,11.636 h -34.909 c -6.982,0 -11.636,4.655 -11.636,11.636 0,6.982 4.655,11.636 11.636,11.636 h 11.636 c 0,6.982 4.655,11.636 11.636,11.636 6.982,0 11.636,-4.655 11.636,-11.636 19.782,0 34.909,-15.127 34.909,-34.909 0,-19.782 -15.127,-34.909 -34.909,-34.909 z"
     style="fill:#89c763" /><circle
     id="circle187"
     r="81.455002"
     cy="-119.54501"
     cx="302.54501"
     style="fill:#ffca5d" /><circle
     id="circle189"
     r="81.455002"
     cy="-142.81799"
     cx="407.27301"
     style="fill:#f6b545" /><path
     inkscape:connector-curvature="0"
     id="path191"
     d="m 407.273,-224.273 c -45.382,0 -81.455,36.073 -81.455,81.455 0,45.382 36.073,81.455 81.455,81.455 45.382,0 81.455,-36.073 81.455,-81.455 0,-45.382 -36.073,-81.455 -81.455,-81.455 z m 0,139.637 c -32.582,0 -58.182,-25.6 -58.182,-58.182 0,-32.582 25.6,-58.182 58.182,-58.182 32.582,0 58.182,25.6 58.182,58.182 0,32.582 -25.6,58.182 -58.182,58.182 z"
     style="fill:#ffcb5b" /><path
     inkscape:connector-curvature="0"
     id="path193"
     d="m 407.273,-62.527 v 0 c 45.382,1.164 81.455,-36.073 81.455,-80.291 h -1.164 c -5.818,0 -10.473,4.655 -11.636,10.473 -2.327,16.291 -10.473,31.418 -22.109,41.891 -9.309,9.309 -22.109,15.127 -36.073,17.454 -5.819,0 -10.473,4.655 -10.473,10.473 z"
     style="fill:#f6b545" /><path
     inkscape:connector-curvature="0"
     id="path195"
     d="m 407.273,-223.109 v 0 c -45.382,-1.164 -81.455,36.073 -81.455,80.291 h 1.164 c 5.818,0 10.473,-4.655 11.636,-10.473 2.327,-16.291 10.473,-31.418 22.109,-41.891 9.309,-9.309 22.109,-15.127 36.073,-17.455 5.818,0.001 10.473,-4.654 10.473,-10.472 z"
     style="fill:#ffe27a" /><path
     inkscape:connector-curvature="0"
     id="path197"
     d="m 357.236,-134.673 c 0,-32.582 25.6,-58.182 58.182,-58.182 13.964,0 26.764,4.655 37.236,13.964 C 441.018,-192.855 425.891,-201 407.273,-201 c -32.582,0 -58.182,25.6 -58.182,58.182 0,18.618 8.145,33.745 20.945,44.218 -8.145,-9.309 -12.8,-22.109 -12.8,-36.073 z"
     style="fill:#f19920" /><path
     inkscape:connector-curvature="0"
     id="path199"
     d="m 442.182,-106.745 c -1.164,0 -2.327,0 -3.491,-1.164 -2.327,-2.327 -2.327,-5.818 0,-8.145 6.982,-6.982 10.473,-17.455 10.473,-26.764 0,-3.491 2.327,-5.818 5.818,-5.818 3.491,0 5.818,2.327 5.818,5.818 0,12.8 -4.655,25.6 -12.8,34.909 -2.327,1.164 -4.655,1.164 -5.818,1.164 z"
     style="fill:#ffcb5b" /><g
     transform="translate(0,-457)"
     id="g205">
	<path
   inkscape:connector-curvature="0"
   id="path201"
   d="m 407.273,349.091 c -6.982,0 -11.636,-4.655 -11.636,-11.636 V 290.91 c 0,-6.982 4.655,-11.636 11.636,-11.636 6.981,0 11.636,4.655 11.636,11.636 v 46.545 c 0,6.981 -4.654,11.636 -11.636,11.636 z"
   style="fill:#f19920" />
	<path
   inkscape:connector-curvature="0"
   id="path203"
   d="M 450.327,382.836 C 442.182,353.745 421.236,330.472 394.472,320 c -4.655,-26.764 -22.109,-50.036 -44.218,-64 -13.964,15.127 -23.273,34.909 -23.273,57.018 0,45.382 36.073,81.455 81.455,81.455 15.128,1.163 29.091,-3.491 41.891,-11.637 z"
   style="fill:#f19920" />
</g><g
     transform="translate(0,-457)"
     id="g211">
	<path
   inkscape:connector-curvature="0"
   id="path207"
   d="m 370.036,358.4 c -8.145,-10.473 -13.964,-23.273 -13.964,-37.236 0,-16.291 6.982,-31.418 18.618,-41.891 -2.327,-3.491 -4.655,-5.818 -6.982,-8.145 -11.636,10.473 -18.618,25.6 -18.618,43.055 0.001,18.617 8.146,33.744 20.946,44.217 z"
   style="fill:#e78825" />
	<path
   inkscape:connector-curvature="0"
   id="path209"
   d="m 395.636,321.164 v 16.291 c 0,6.982 4.655,11.636 11.636,11.636 6.981,0 11.636,-4.655 11.636,-11.636 v -2.327 c -6.981,-5.819 -15.126,-10.473 -23.272,-13.964 z"
   style="fill:#e78825" />
</g><path
     inkscape:connector-curvature="0"
     id="path213"
     d="m 450.327,-74.164 c -2.327,-8.145 -4.655,-15.127 -9.309,-22.109 -9.309,6.982 -20.945,11.636 -33.745,11.636 -32.582,0 -58.182,-25.6 -58.182,-58.182 0,-17.455 6.982,-32.582 18.618,-43.055 -5.818,-5.818 -11.636,-10.473 -18.618,-13.964 -13.964,15.127 -23.273,34.909 -23.273,57.018 0,45.382 36.073,81.455 81.455,81.455 16.291,0.001 30.254,-4.653 43.054,-12.799 z"
     style="fill:#f6b545" /><path
     inkscape:connector-curvature="0"
     id="path215"
     d="m 446.836,-84.636 c -8.145,5.818 -18.618,9.309 -29.091,11.636 -5.818,1.164 -10.473,5.818 -10.473,11.636 v 0 c 16.291,0 30.255,-4.655 43.055,-12.8 -1.163,-3.491 -2.327,-6.981 -3.491,-10.472 z"
     style="fill:#f19920" /><path
     inkscape:connector-curvature="0"
     id="path217"
     d="m 349.091,-199.836 c -13.964,15.127 -23.273,34.909 -23.273,57.018 h 1.164 c 5.818,0 10.473,-4.655 11.636,-10.473 2.327,-16.291 10.473,-30.255 20.945,-40.727 -3.49,-1.164 -6.981,-3.491 -10.472,-5.818 z"
     style="fill:#ffcb5b" /><circle
     id="circle219"
     r="81.455002"
     cy="-119.54501"
     cx="302.54501"
     style="fill:#f6b545" /><path
     inkscape:connector-curvature="0"
     id="path221"
     d="m 290.909,-61.364 c 0,8.145 1.164,15.127 3.491,23.273 2.327,0 5.818,0 8.145,0 45.382,0 81.455,-36.073 81.455,-81.455 0,-8.145 -1.164,-15.127 -3.491,-23.273 -2.327,0 -5.818,0 -8.145,0 -45.382,10e-4 -81.455,36.074 -81.455,81.455 z"
     style="fill:#f19920" /><path
     inkscape:connector-curvature="0"
     id="path223"
     d="m 302.545,-201 c -45.382,0 -81.455,36.073 -81.455,81.455 0,45.382 36.073,81.455 81.455,81.455 45.382,0 81.455,-36.074 81.455,-81.455 C 384,-164.926 347.927,-201 302.545,-201 Z m 0,139.636 c -32.582,0 -58.182,-25.6 -58.182,-58.182 0,-32.582 25.6,-58.182 58.182,-58.182 32.582,0 58.182,25.6 58.182,58.182 0,32.582 -25.6,58.182 -58.182,58.182 z"
     style="fill:#ffcb5b" /><path
     inkscape:connector-curvature="0"
     id="path225"
     d="m 302.545,-39.255 v 0 C 347.927,-38.091 384,-75.327 384,-119.545 h -1.164 c -5.818,0 -10.473,4.655 -11.636,10.473 -2.327,16.291 -10.473,31.418 -22.109,41.891 -9.309,9.309 -22.109,15.127 -36.073,17.455 -5.818,-10e-4 -10.473,4.653 -10.473,10.471 z"
     style="fill:#f6b545" /><path
     inkscape:connector-curvature="0"
     id="path227"
     d="m 302.545,-199.836 v 0 c -45.382,-1.164 -81.455,36.073 -81.455,80.291 h 1.164 c 5.818,0 10.473,-4.655 11.636,-10.473 2.327,-16.291 10.473,-31.418 22.109,-41.891 9.309,-9.309 22.109,-15.127 36.073,-17.455 5.819,0 10.473,-4.654 10.473,-10.472 z"
     style="fill:#ffe27a" /><path
     inkscape:connector-curvature="0"
     id="path229"
     d="m 252.509,-111.4 c 0,-32.582 25.6,-58.182 58.182,-58.182 13.964,0 26.764,4.655 37.236,13.964 -11.636,-13.964 -26.764,-22.109 -45.382,-22.109 -32.582,0 -58.182,25.6 -58.182,58.182 0,18.618 8.145,33.745 20.945,44.218 -8.144,-9.309 -12.799,-22.109 -12.799,-36.073 z"
     style="fill:#f19920" /><path
     inkscape:connector-curvature="0"
     id="path231"
     d="m 337.455,-83.473 c -1.164,0 -2.327,0 -3.491,-1.164 -2.327,-2.327 -2.327,-5.818 0,-8.145 6.982,-6.982 10.473,-17.455 10.473,-26.764 0,-3.491 2.327,-5.818 5.818,-5.818 3.491,0 5.818,2.327 5.818,5.818 0,12.8 -4.655,25.6 -12.8,34.909 -2.328,1.164 -4.655,1.164 -5.818,1.164 z"
     style="fill:#ffcb5b" /><path
     inkscape:connector-curvature="0"
     id="path233"
     d="m 302.545,-84.636 c -6.982,0 -11.636,-4.655 -11.636,-11.636 v -46.545 c 0,-6.982 4.655,-11.636 11.636,-11.636 6.982,0 11.636,4.655 11.636,11.636 v 46.545 c 0.001,6.981 -4.654,11.636 -11.636,11.636 z"
     style="fill:#f19920" /><g
     transform="translate(0,-457)"
     id="g239">
	<path
   inkscape:connector-curvature="0"
   id="path235"
   d="m 356.073,315.345 c 2.327,6.982 4.655,13.964 4.655,22.109 0,32.582 -25.6,58.182 -58.182,58.182 -3.491,0 -8.145,0 -11.636,-1.164 v 1.164 c 0,8.145 1.164,15.127 3.491,23.273 2.327,0 5.818,0 8.145,0 45.382,0 81.455,-36.073 81.455,-81.455 0,-8.145 -1.164,-15.127 -3.491,-23.273 -2.327,0 -5.818,0 -8.145,0 -5.82,0.001 -10.474,0.001 -16.292,1.164 z"
   style="fill:#f6b545" />
	<circle
   id="circle237"
   r="81.455002"
   cy="407.27301"
   cx="360.72699"
   style="fill:#f6b545" />
</g><path
     inkscape:connector-curvature="0"
     id="path241"
     d="m 360.727,-131.182 c -45.382,0 -81.455,36.073 -81.455,81.455 0,45.382 36.073,81.455 81.455,81.455 45.382,0 81.455,-36.073 81.455,-81.455 0,-45.382 -36.073,-81.455 -81.455,-81.455 z m 0,139.637 c -32.582,0 -58.182,-25.6 -58.182,-58.182 0,-32.582 25.6,-58.182 58.182,-58.182 32.582,0 58.182,25.6 58.182,58.182 0,32.582 -25.6,58.182 -58.182,58.182 z"
     style="fill:#ffcb5b" /><path
     inkscape:connector-curvature="0"
     id="path243"
     d="m 360.727,30.564 v 0 c 45.382,1.164 81.455,-36.073 81.455,-80.291 h -1.164 c -5.818,0 -10.473,4.655 -11.636,10.473 -2.327,16.291 -10.473,31.418 -22.109,41.891 -9.309,9.309 -22.109,15.127 -36.073,17.455 -5.818,-10e-4 -10.473,4.653 -10.473,10.472 z"
     style="fill:#f6b545" /><path
     inkscape:connector-curvature="0"
     id="path245"
     d="m 360.727,-130.018 v 0 c -45.382,-1.164 -81.455,36.073 -81.455,80.291 h 1.164 c 5.818,0 10.473,-4.655 11.636,-10.473 2.327,-16.291 10.473,-31.418 22.109,-41.891 9.309,-9.309 22.109,-15.127 36.073,-17.455 5.819,0.001 10.473,-4.654 10.473,-10.472 z"
     style="fill:#ffe27a" /><path
     inkscape:connector-curvature="0"
     id="path247"
     d="m 310.691,-41.582 c 0,-32.582 25.6,-58.182 58.182,-58.182 13.964,0 26.764,4.655 37.236,13.964 -11.636,-13.964 -26.764,-22.109 -45.382,-22.109 -32.582,0 -58.182,25.6 -58.182,58.182 0,18.618 8.145,33.745 20.945,44.218 -8.145,-9.309 -12.799,-22.109 -12.799,-36.073 z"
     style="fill:#f19920" /><path
     inkscape:connector-curvature="0"
     id="path249"
     d="m 395.636,-13.655 c -1.164,0 -2.327,0 -3.491,-1.164 -2.327,-2.327 -2.327,-5.818 0,-8.145 6.982,-6.982 10.473,-17.455 10.473,-26.764 0,-3.491 2.327,-5.818 5.818,-5.818 3.491,0 5.818,2.327 5.818,5.818 0,12.8 -4.655,25.6 -12.8,34.909 -2.327,1.164 -4.654,1.164 -5.818,1.164 z"
     style="fill:#ffcb5b" /><path
     inkscape:connector-curvature="0"
     id="path251"
     d="m 360.727,-14.818 c -6.982,0 -11.636,-4.655 -11.636,-11.636 V -73 c 0,-6.982 4.655,-11.636 11.636,-11.636 6.982,0 11.636,4.655 11.636,11.636 v 46.545 c 10e-4,6.982 -4.654,11.637 -11.636,11.637 z"
     style="fill:#f19920" /><g
     transform="translate(0,-457)"
     id="g253">
</g><g
     transform="translate(0,-457)"
     id="g255">
</g><g
     transform="translate(0,-457)"
     id="g257">
</g><g
     transform="translate(0,-457)"
     id="g259">
</g><g
     transform="translate(0,-457)"
     id="g261">
</g><g
     transform="translate(0,-457)"
     id="g263">
</g><g
     transform="translate(0,-457)"
     id="g265">
</g><g
     transform="translate(0,-457)"
     id="g267">
</g><g
     transform="translate(0,-457)"
     id="g269">
</g><g
     transform="translate(0,-457)"
     id="g271">
</g><g
     transform="translate(0,-457)"
     id="g273">
</g><g
     transform="translate(0,-457)"
     id="g275">
</g><g
     transform="translate(0,-457)"
     id="g277">
</g><g
     transform="translate(0,-457)"
     id="g279">
</g><g
     transform="translate(0,-457)"
     id="g281">
</g></g>
</svg>